<!-- @license lucide-static v0.503.0 - ISC -->
<svg
  class="lucide lucide-save"
  xmlns="http://www.w3.org/2000/svg"
  width="24"
  height="24"
  viewBox="0 0 24 24"
 
 
  stroke-width="2"
  stroke-linecap="round"
  stroke-linejoin="round"
 fill="none" stroke="url(#icon-gradient)">

  <defs>
    <linearGradient id="icon-gradient" x1="0%" y1="0%" x2="100%" y2="0%">
      <stop offset="0%" stop-color="#3b82f6"/>
      <stop offset="100%" stop-color="#8b5cf6"/>
    </linearGradient>
  </defs>

  <path d="M15.2 3a2 2 0 0 1 1.4.6l3.8 3.8a2 2 0 0 1 .6 1.4V19a2 2 0 0 1-2 2H5a2 2 0 0 1-2-2V5a2 2 0 0 1 2-2z" />
  <path d="M17 21v-7a1 1 0 0 0-1-1H8a1 1 0 0 0-1 1v7" />
  <path d="M7 3v4a1 1 0 0 0 1 1h7" />
</svg>
